Coordinates
version=1
nRows=5
nColumns=40
inDegrees=yes

Units are S.I. units (second, meters, Newtons, ...)
If the header above contains a line with 'inDegrees', this indicates whether rotational values are in degrees (yes) or radians (no).

endheader
time	pelvis_tilt	pelvis_list	pelvis_rotation	pelvis_tx	pelvis_ty	pelvis_tz	hip_flexion_r	hip_adduction_r	hip_rotation_r	knee_angle_r	knee_angle_r_beta	ankle_angle_r	subtalar_angle_r	mtp_angle_r	hip_flexion_l	hip_adduction_l	hip_rotation_l	knee_angle_l	knee_angle_l_beta	ankle_angle_l	subtalar_angle_l	mtp_angle_l	lumbar_extension	lumbar_bending	lumbar_rotation	arm_flex_r	arm_add_r	arm_rot_r	elbow_flex_r	pro_sup_r	wrist_flex_r	wrist_dev_r	arm_flex_l	arm_add_l	arm_rot_l	elbow_flex_l	pro_sup_l	wrist_flex_l	wrist_dev_l
      1.11500000	     -1.80965658	      7.04753914	      8.95004479	      1.03603843	      0.89610216	      0.17495620	     30.22953968	    -12.71577237	    -18.62969649	     10.64528181	      0.18579522	      0.74537869	      4.06320162	      0.00000000	    -21.52442194	      1.78594309	    -14.55561578	     11.90299105	      0.20774638	      0.96394668	     14.57993633	      0.00000000	     -0.77093430	     -4.03648285	     -1.47355996	     44.32789269	    -15.85844537	     44.32789269	     75.03911350	     44.99882292	      0.00000000	      0.00000000	     44.32789269	    -15.85844537	     44.32789269	     75.03911350	     44.99882292	      0.00000000	      0.00000000
      1.12000000	     -1.38615163	      6.42368411	      9.20458438	      1.04453186	      0.89657792	      0.17467431	     29.45614989	    -12.14388725	    -19.00954853	     10.97531027	      0.19155530	     -0.04326473	      3.28551691	      0.00000000	    -21.92708864	      0.79615050	    -14.54813118	     12.65696779	      0.22090576	      0.05157420	     13.91509730	      0.00000000	     -1.07523695	     -3.19749403	     -2.24803538	     44.33030536	    -15.85335578	     44.33030536	     75.03866217	     44.99886049	      0.00000000	      0.00000000	     44.33030536	    -15.85335578	     44.33030536	     75.03866217	     44.99886049	      0.00000000	      0.00000000
      1.12500000	     -1.14230104	      6.13098510	      9.16162136	      1.05307468	      0.89666380	      0.17518646	     29.15046267	    -11.81793836	    -18.97941628	     11.73852811	      0.20487596	     -0.60099680	      2.72135533	      0.00000000	    -22.21197101	      0.26884883	    -14.71793591	     13.32601809	      0.23258289	     -1.14558351	     13.28424212	      0.00000000	     -1.20748387	     -2.78077514	     -2.52104758	     44.33061997	    -15.85269317	     44.33061997	     75.03860364	     44.99886530	      0.00000000	      0.00000000	     44.33061997	    -15.85269317	     44.33061997	     75.03860364	     44.99886530	      0.00000000	      0.00000000
      1.13000000	     -0.34542114	      5.04203585	      9.54877811	      1.06158135	      0.89802036	      0.17438154	     27.72903088	    -10.71751937	    -19.67629130	     11.59394328	      0.20235248	     -1.88301112	      1.64338046	      0.00000000	    -22.84141799	     -1.30120990	    -14.77929547	     14.22315142	      0.24824082	     -2.12454794	     12.43019800	      0.00000000	     -1.86575667	     -1.39754912	     -3.88228555	     44.33367946	    -15.84625871	     44.33367946	     75.03803725	     44.99891120	      0.00000000	      0.00000000	     44.33367946	    -15.84625871	     44.33367946	     75.03803725	     44.99891120	      0.00000000	      0.00000000
      1.13500000	     -0.06605495	      4.69148773	      9.44349872	      1.07012203	      0.89830917	      0.17499401	     27.43562492	    -10.32254512	    -19.73165911	     12.43328621	      0.21700178	     -2.54559215	      1.06128182	      0.00000000	    -23.04109861	     -1.88195288	    -15.05058859	     15.07949424	      0.26318682	     -3.50702365	     11.54933821	      0.00000000	     -2.01683056	     -0.93417036	     -4.16952816	     44.33406293	    -15.84545374	     44.33406293	     75.03796671	     44.99891682	      0.00000000	      0.00000000	     44.33406293	    -15.84545374	     44.33406293	     75.03796671	     44.99891682	      0.00000000	      0.00000000
